<mxfile host="Electron" modified="2024-07-08T13:25:22.543Z" agent="Mozilla/5.0 (X11; Linux x86_64) AppleWebKit/537.36 (KHTML, like Gecko) draw.io/24.5.3 Chrome/124.0.6367.207 Electron/30.0.6 Safari/537.36" etag="D-DfT3b2UFbIt6LqBCBH" version="24.5.3" type="device">
  <diagram name="Page-1" id="vUJvHMVq9Ax0yadY_CV4">
    <mxGraphModel dx="3284" dy="1923" grid="1" gridSize="10" guides="1" tooltips="1" connect="1" arrows="1" fold="1" page="1" pageScale="1" pageWidth="850" pageHeight="1100" math="0" shadow="0">
      <root>
        <mxCell id="0" />
        <mxCell id="1" parent="0" />
        <mxCell id="dMwncB3rOMwtxvETH3Yq-2" value="" style="rounded=0;whiteSpace=wrap;html=1;strokeColor=none;" vertex="1" parent="1">
          <mxGeometry x="40" y="10" width="700" height="620" as="geometry" />
        </mxCell>
        <mxCell id="tGnv5lgjR0wcV_9iN31t-25" style="edgeStyle=orthogonalEdgeStyle;rounded=0;orthogonalLoop=1;jettySize=auto;html=1;strokeWidth=2;endArrow=classicThin;endFill=1;" parent="1" source="tGnv5lgjR0wcV_9iN31t-9" target="tGnv5lgjR0wcV_9iN31t-8" edge="1">
          <mxGeometry relative="1" as="geometry" />
        </mxCell>
        <mxCell id="tGnv5lgjR0wcV_9iN31t-26" style="edgeStyle=orthogonalEdgeStyle;rounded=0;orthogonalLoop=1;jettySize=auto;html=1;strokeWidth=2;endArrow=classicThin;endFill=1;" parent="1" source="tGnv5lgjR0wcV_9iN31t-9" target="tGnv5lgjR0wcV_9iN31t-7" edge="1">
          <mxGeometry relative="1" as="geometry" />
        </mxCell>
        <mxCell id="tGnv5lgjR0wcV_9iN31t-9" value="&lt;p style=&quot;line-height: 120%; padding-right: 0px; padding-top: 0px; padding-bottom: 0px; margin-top: -300px; margin-right: 0px; font-size: 20px;&quot;&gt;&lt;font style=&quot;font-size: 20px;&quot; face=&quot;Titillium Web&quot;&gt;Pressure P&lt;sub&gt;1&lt;/sub&gt;&lt;/font&gt;&lt;/p&gt;" style="rounded=1;whiteSpace=wrap;html=1;strokeWidth=2;align=center;fillColor=#89B0C4;" parent="1" vertex="1">
          <mxGeometry x="180" y="50" width="430" height="260" as="geometry" />
        </mxCell>
        <mxCell id="tGnv5lgjR0wcV_9iN31t-18" style="edgeStyle=orthogonalEdgeStyle;rounded=0;orthogonalLoop=1;jettySize=auto;html=1;strokeWidth=2;endArrow=classicThin;endFill=1;" parent="1" source="tGnv5lgjR0wcV_9iN31t-1" target="tGnv5lgjR0wcV_9iN31t-9" edge="1">
          <mxGeometry relative="1" as="geometry" />
        </mxCell>
        <mxCell id="tGnv5lgjR0wcV_9iN31t-19" style="edgeStyle=orthogonalEdgeStyle;rounded=0;orthogonalLoop=1;jettySize=auto;html=1;strokeWidth=2;endArrow=classicThin;endFill=1;" parent="1" source="tGnv5lgjR0wcV_9iN31t-1" target="tGnv5lgjR0wcV_9iN31t-3" edge="1">
          <mxGeometry relative="1" as="geometry" />
        </mxCell>
        <mxCell id="tGnv5lgjR0wcV_9iN31t-1" value="&lt;font face=&quot;Titillium Web&quot; style=&quot;font-size: 16px;&quot;&gt;Inputs&lt;/font&gt;" style="ellipse;whiteSpace=wrap;html=1;aspect=fixed;strokeWidth=2;fillColor=#A59FFF;" parent="1" vertex="1">
          <mxGeometry x="50" y="140" width="80" height="80" as="geometry" />
        </mxCell>
        <mxCell id="tGnv5lgjR0wcV_9iN31t-20" style="edgeStyle=orthogonalEdgeStyle;rounded=0;orthogonalLoop=1;jettySize=auto;html=1;endArrow=classicThin;endFill=1;strokeWidth=2;" parent="1" source="tGnv5lgjR0wcV_9iN31t-3" target="tGnv5lgjR0wcV_9iN31t-4" edge="1">
          <mxGeometry relative="1" as="geometry" />
        </mxCell>
        <mxCell id="tGnv5lgjR0wcV_9iN31t-3" value="&lt;font color=&quot;#ffffff&quot; face=&quot;Titillium Web&quot; style=&quot;font-size: 16px;&quot;&gt;DFT&lt;/font&gt;" style="rhombus;whiteSpace=wrap;html=1;strokeWidth=2;fillColor=#192E86;" parent="1" vertex="1">
          <mxGeometry x="210" y="135" width="90" height="90" as="geometry" />
        </mxCell>
        <mxCell id="tGnv5lgjR0wcV_9iN31t-21" style="edgeStyle=orthogonalEdgeStyle;rounded=0;orthogonalLoop=1;jettySize=auto;html=1;strokeWidth=2;endArrow=classicThin;endFill=1;" parent="1" source="tGnv5lgjR0wcV_9iN31t-4" target="tGnv5lgjR0wcV_9iN31t-5" edge="1">
          <mxGeometry relative="1" as="geometry" />
        </mxCell>
        <mxCell id="tGnv5lgjR0wcV_9iN31t-22" style="edgeStyle=orthogonalEdgeStyle;rounded=0;orthogonalLoop=1;jettySize=auto;html=1;strokeWidth=2;endArrow=classicThin;endFill=1;" parent="1" source="tGnv5lgjR0wcV_9iN31t-4" target="tGnv5lgjR0wcV_9iN31t-6" edge="1">
          <mxGeometry relative="1" as="geometry" />
        </mxCell>
        <mxCell id="tGnv5lgjR0wcV_9iN31t-4" value="&lt;font color=&quot;#ffffff&quot; face=&quot;Titillium Web&quot; style=&quot;font-size: 16px;&quot;&gt;TB&lt;/font&gt;" style="rhombus;whiteSpace=wrap;html=1;strokeWidth=2;fillColor=#192E86;" parent="1" vertex="1">
          <mxGeometry x="350" y="135" width="90" height="90" as="geometry" />
        </mxCell>
        <mxCell id="tGnv5lgjR0wcV_9iN31t-23" style="edgeStyle=orthogonalEdgeStyle;rounded=0;orthogonalLoop=1;jettySize=auto;html=1;strokeWidth=2;endArrow=classicThin;endFill=1;" parent="1" source="tGnv5lgjR0wcV_9iN31t-5" target="tGnv5lgjR0wcV_9iN31t-7" edge="1">
          <mxGeometry relative="1" as="geometry" />
        </mxCell>
        <mxCell id="tGnv5lgjR0wcV_9iN31t-5" value="&lt;font color=&quot;#ffffff&quot; face=&quot;Titillium Web&quot; style=&quot;font-size: 16px;&quot;&gt;DMFT&lt;/font&gt;&lt;div&gt;&lt;font color=&quot;#ffffff&quot; face=&quot;Titillium Web&quot;&gt;&lt;span style=&quot;font-size: 16px;&quot;&gt;at T&lt;sub&gt;1&lt;/sub&gt;&lt;/span&gt;&lt;/font&gt;&lt;/div&gt;" style="rhombus;whiteSpace=wrap;html=1;strokeWidth=2;fillColor=#192E86;" parent="1" vertex="1">
          <mxGeometry x="490" y="85" width="90" height="90" as="geometry" />
        </mxCell>
        <mxCell id="tGnv5lgjR0wcV_9iN31t-24" style="edgeStyle=orthogonalEdgeStyle;rounded=0;orthogonalLoop=1;jettySize=auto;html=1;endArrow=classicThin;endFill=1;strokeWidth=2;" parent="1" source="tGnv5lgjR0wcV_9iN31t-6" target="tGnv5lgjR0wcV_9iN31t-8" edge="1">
          <mxGeometry relative="1" as="geometry" />
        </mxCell>
        <mxCell id="tGnv5lgjR0wcV_9iN31t-6" value="&lt;font color=&quot;#ffffff&quot; face=&quot;Titillium Web&quot; style=&quot;font-size: 16px;&quot;&gt;DMFT&lt;/font&gt;&lt;div&gt;&lt;font color=&quot;#ffffff&quot; face=&quot;Titillium Web&quot;&gt;&lt;span style=&quot;font-size: 16px;&quot;&gt;at T&lt;/span&gt;&lt;span style=&quot;font-size: 13.3333px;&quot;&gt;&lt;sub&gt;2&lt;/sub&gt;&lt;/span&gt;&lt;/font&gt;&lt;/div&gt;" style="rhombus;whiteSpace=wrap;html=1;strokeWidth=2;fillColor=#192E86;" parent="1" vertex="1">
          <mxGeometry x="490" y="190" width="90" height="90" as="geometry" />
        </mxCell>
        <mxCell id="tGnv5lgjR0wcV_9iN31t-7" value="&lt;font color=&quot;#ffffff&quot; face=&quot;Titillium Web&quot; style=&quot;font-size: 16px;&quot;&gt;Outputs&lt;/font&gt;&lt;div&gt;&lt;font color=&quot;#ffffff&quot;&gt;&lt;font face=&quot;Titillium Web&quot; style=&quot;font-size: 16px;&quot;&gt;(P&lt;sub&gt;1&lt;/sub&gt;&lt;/font&gt;&lt;span style=&quot;font-size: 16px; font-family: &amp;quot;Titillium Web&amp;quot;; background-color: initial;&quot;&gt;, T&lt;sub&gt;1&lt;/sub&gt;)&lt;/span&gt;&lt;/font&gt;&lt;/div&gt;" style="ellipse;whiteSpace=wrap;html=1;aspect=fixed;strokeWidth=2;fillColor=#005A35;" parent="1" vertex="1">
          <mxGeometry x="650" y="90" width="80" height="80" as="geometry" />
        </mxCell>
        <mxCell id="tGnv5lgjR0wcV_9iN31t-8" value="&lt;font color=&quot;#ffffff&quot; face=&quot;Titillium Web&quot; style=&quot;font-size: 16px;&quot;&gt;Outputs&lt;/font&gt;&lt;div&gt;&lt;font color=&quot;#ffffff&quot;&gt;&lt;font face=&quot;Titillium Web&quot; style=&quot;font-size: 16px;&quot;&gt;(P&lt;sub&gt;1&lt;/sub&gt;&lt;/font&gt;&lt;span style=&quot;font-size: 16px; font-family: &amp;quot;Titillium Web&amp;quot;; background-color: initial;&quot;&gt;, T&lt;sub&gt;2&lt;/sub&gt;)&lt;/span&gt;&lt;/font&gt;&lt;/div&gt;" style="ellipse;whiteSpace=wrap;html=1;aspect=fixed;strokeWidth=2;fillColor=#005A35;" parent="1" vertex="1">
          <mxGeometry x="650" y="195" width="80" height="80" as="geometry" />
        </mxCell>
        <mxCell id="tGnv5lgjR0wcV_9iN31t-27" style="edgeStyle=orthogonalEdgeStyle;rounded=0;orthogonalLoop=1;jettySize=auto;html=1;strokeWidth=2;endArrow=classicThin;endFill=1;" parent="1" source="tGnv5lgjR0wcV_9iN31t-29" target="tGnv5lgjR0wcV_9iN31t-43" edge="1">
          <mxGeometry relative="1" as="geometry" />
        </mxCell>
        <mxCell id="tGnv5lgjR0wcV_9iN31t-28" style="edgeStyle=orthogonalEdgeStyle;rounded=0;orthogonalLoop=1;jettySize=auto;html=1;strokeWidth=2;endArrow=classicThin;endFill=1;" parent="1" source="tGnv5lgjR0wcV_9iN31t-29" target="tGnv5lgjR0wcV_9iN31t-42" edge="1">
          <mxGeometry relative="1" as="geometry" />
        </mxCell>
        <mxCell id="tGnv5lgjR0wcV_9iN31t-29" value="&lt;p style=&quot;line-height: 120%; padding-right: 0px; padding-top: 0px; padding-bottom: 0px; margin-top: -300px; margin-right: 0px; font-size: 20px;&quot;&gt;&lt;font style=&quot;font-size: 20px;&quot; face=&quot;Titillium Web&quot;&gt;Pressure P&lt;sub&gt;2&lt;/sub&gt;&lt;/font&gt;&lt;/p&gt;" style="rounded=1;whiteSpace=wrap;html=1;strokeWidth=2;align=center;fillColor=#89B0C4;" parent="1" vertex="1">
          <mxGeometry x="180" y="360" width="430" height="260" as="geometry" />
        </mxCell>
        <mxCell id="tGnv5lgjR0wcV_9iN31t-30" style="edgeStyle=orthogonalEdgeStyle;rounded=0;orthogonalLoop=1;jettySize=auto;html=1;strokeWidth=2;endArrow=classicThin;endFill=1;" parent="1" source="tGnv5lgjR0wcV_9iN31t-32" target="tGnv5lgjR0wcV_9iN31t-29" edge="1">
          <mxGeometry relative="1" as="geometry" />
        </mxCell>
        <mxCell id="tGnv5lgjR0wcV_9iN31t-31" style="edgeStyle=orthogonalEdgeStyle;rounded=0;orthogonalLoop=1;jettySize=auto;html=1;strokeWidth=2;endArrow=classicThin;endFill=1;" parent="1" source="tGnv5lgjR0wcV_9iN31t-32" target="tGnv5lgjR0wcV_9iN31t-34" edge="1">
          <mxGeometry relative="1" as="geometry" />
        </mxCell>
        <mxCell id="tGnv5lgjR0wcV_9iN31t-32" value="&lt;font face=&quot;Titillium Web&quot; style=&quot;font-size: 16px;&quot;&gt;Inputs&lt;/font&gt;" style="ellipse;whiteSpace=wrap;html=1;aspect=fixed;strokeWidth=2;fillColor=#A59FFF;" parent="1" vertex="1">
          <mxGeometry x="50" y="450" width="80" height="80" as="geometry" />
        </mxCell>
        <mxCell id="tGnv5lgjR0wcV_9iN31t-33" style="edgeStyle=orthogonalEdgeStyle;rounded=0;orthogonalLoop=1;jettySize=auto;html=1;endArrow=classicThin;endFill=1;strokeWidth=2;" parent="1" source="tGnv5lgjR0wcV_9iN31t-34" target="tGnv5lgjR0wcV_9iN31t-37" edge="1">
          <mxGeometry relative="1" as="geometry" />
        </mxCell>
        <mxCell id="tGnv5lgjR0wcV_9iN31t-34" value="&lt;font color=&quot;#ffffff&quot; face=&quot;Titillium Web&quot; style=&quot;font-size: 16px;&quot;&gt;DFT&lt;/font&gt;" style="rhombus;whiteSpace=wrap;html=1;strokeWidth=2;fillColor=#192E86;" parent="1" vertex="1">
          <mxGeometry x="210" y="445" width="90" height="90" as="geometry" />
        </mxCell>
        <mxCell id="tGnv5lgjR0wcV_9iN31t-35" style="edgeStyle=orthogonalEdgeStyle;rounded=0;orthogonalLoop=1;jettySize=auto;html=1;strokeWidth=2;endArrow=classicThin;endFill=1;" parent="1" source="tGnv5lgjR0wcV_9iN31t-37" target="tGnv5lgjR0wcV_9iN31t-39" edge="1">
          <mxGeometry relative="1" as="geometry" />
        </mxCell>
        <mxCell id="tGnv5lgjR0wcV_9iN31t-36" style="edgeStyle=orthogonalEdgeStyle;rounded=0;orthogonalLoop=1;jettySize=auto;html=1;strokeWidth=2;endArrow=classicThin;endFill=1;" parent="1" source="tGnv5lgjR0wcV_9iN31t-37" target="tGnv5lgjR0wcV_9iN31t-41" edge="1">
          <mxGeometry relative="1" as="geometry" />
        </mxCell>
        <mxCell id="tGnv5lgjR0wcV_9iN31t-37" value="&lt;font color=&quot;#ffffff&quot; face=&quot;Titillium Web&quot; style=&quot;font-size: 16px;&quot;&gt;TB&lt;/font&gt;" style="rhombus;whiteSpace=wrap;html=1;strokeWidth=2;fillColor=#192E86;" parent="1" vertex="1">
          <mxGeometry x="350" y="445" width="90" height="90" as="geometry" />
        </mxCell>
        <mxCell id="tGnv5lgjR0wcV_9iN31t-38" style="edgeStyle=orthogonalEdgeStyle;rounded=0;orthogonalLoop=1;jettySize=auto;html=1;strokeWidth=2;endArrow=classicThin;endFill=1;" parent="1" source="tGnv5lgjR0wcV_9iN31t-39" target="tGnv5lgjR0wcV_9iN31t-42" edge="1">
          <mxGeometry relative="1" as="geometry" />
        </mxCell>
        <mxCell id="tGnv5lgjR0wcV_9iN31t-39" value="&lt;font color=&quot;#ffffff&quot; face=&quot;Titillium Web&quot; style=&quot;font-size: 16px;&quot;&gt;DMFT&lt;/font&gt;&lt;div&gt;&lt;font color=&quot;#ffffff&quot; face=&quot;Titillium Web&quot;&gt;&lt;span style=&quot;font-size: 16px;&quot;&gt;at T&lt;sub&gt;1&lt;/sub&gt;&lt;/span&gt;&lt;/font&gt;&lt;/div&gt;" style="rhombus;whiteSpace=wrap;html=1;strokeWidth=2;fillColor=#192E86;" parent="1" vertex="1">
          <mxGeometry x="490" y="395" width="90" height="90" as="geometry" />
        </mxCell>
        <mxCell id="tGnv5lgjR0wcV_9iN31t-40" style="edgeStyle=orthogonalEdgeStyle;rounded=0;orthogonalLoop=1;jettySize=auto;html=1;endArrow=classicThin;endFill=1;strokeWidth=2;" parent="1" source="tGnv5lgjR0wcV_9iN31t-41" target="tGnv5lgjR0wcV_9iN31t-43" edge="1">
          <mxGeometry relative="1" as="geometry" />
        </mxCell>
        <mxCell id="tGnv5lgjR0wcV_9iN31t-41" value="&lt;font color=&quot;#ffffff&quot; face=&quot;Titillium Web&quot; style=&quot;font-size: 16px;&quot;&gt;DMFT&lt;/font&gt;&lt;div&gt;&lt;font color=&quot;#ffffff&quot; face=&quot;Titillium Web&quot;&gt;&lt;span style=&quot;font-size: 16px;&quot;&gt;at T&lt;/span&gt;&lt;span style=&quot;font-size: 13.3333px;&quot;&gt;&lt;sub&gt;2&lt;/sub&gt;&lt;/span&gt;&lt;/font&gt;&lt;/div&gt;" style="rhombus;whiteSpace=wrap;html=1;strokeWidth=2;fillColor=#192E86;" parent="1" vertex="1">
          <mxGeometry x="490" y="500" width="90" height="90" as="geometry" />
        </mxCell>
        <mxCell id="tGnv5lgjR0wcV_9iN31t-42" value="&lt;font color=&quot;#ffffff&quot; face=&quot;Titillium Web&quot; style=&quot;font-size: 16px;&quot;&gt;Outputs&lt;/font&gt;&lt;div&gt;&lt;font color=&quot;#ffffff&quot;&gt;&lt;font face=&quot;Titillium Web&quot; style=&quot;font-size: 16px;&quot;&gt;(P&lt;sub&gt;2&lt;/sub&gt;&lt;/font&gt;&lt;span style=&quot;font-size: 16px; font-family: &amp;quot;Titillium Web&amp;quot;; background-color: initial;&quot;&gt;, T&lt;sub&gt;1&lt;/sub&gt;)&lt;/span&gt;&lt;/font&gt;&lt;/div&gt;" style="ellipse;whiteSpace=wrap;html=1;aspect=fixed;strokeWidth=2;fillColor=#005A35;" parent="1" vertex="1">
          <mxGeometry x="650" y="400" width="80" height="80" as="geometry" />
        </mxCell>
        <mxCell id="tGnv5lgjR0wcV_9iN31t-43" value="&lt;font color=&quot;#ffffff&quot; face=&quot;Titillium Web&quot; style=&quot;font-size: 16px;&quot;&gt;Outputs&lt;/font&gt;&lt;div&gt;&lt;font color=&quot;#ffffff&quot;&gt;&lt;font face=&quot;Titillium Web&quot; style=&quot;font-size: 16px;&quot;&gt;(P&lt;sub&gt;2&lt;/sub&gt;&lt;/font&gt;&lt;span style=&quot;font-size: 16px; font-family: &amp;quot;Titillium Web&amp;quot;; background-color: initial;&quot;&gt;, T&lt;sub&gt;2&lt;/sub&gt;)&lt;/span&gt;&lt;/font&gt;&lt;/div&gt;" style="ellipse;whiteSpace=wrap;html=1;aspect=fixed;strokeWidth=2;fillColor=#005A35;" parent="1" vertex="1">
          <mxGeometry x="650" y="505" width="80" height="80" as="geometry" />
        </mxCell>
      </root>
    </mxGraphModel>
  </diagram>
</mxfile>
